# xmcd CD database file
#
# Track frame offsets:
#	150
#	63532
#	118697
#	167290
#	182925
#	246015
#	301417
#
# Disc length: 4383 seconds
#
# Revision: 0
# Processed by: cddbd v1.5.2PL0 Copyright (c) Steve Scherf et al.
# Submitted via: CDex 1.51
#
DISCID=58111d07
DTITLE=Kevin eubanks - Live at Bradley's 
DYEAR=1994
DGENRE=Jazz
TTITLE0=Speak Low
TTITLE1=Sometimes I Feel Like A Motherless Child 	
TTITLE2=June In January
TTITLE3=In A Sentimental Mood
TTITLE4=Alter Ego
TTITLE5=Red Top
TTITLE6=Mercy, Mercy, Mercy
EXTD=YEAR: 1994
EXTT0=
EXTT1=
EXTT2=
EXTT3=
EXTT4=
EXTT5=
EXTT6=
PLAYORDER=
